HIERARCHY
ROOT Pelvis
{
	OFFSET 0.000000 0.000000 0.000000
	CHANNELS 6 Xposition Yposition Zposition Xrotation Yrotation Zrotation
	JOINT LeftUpLeg_virtual
	{
		OFFSET 0.000000 0.000000 0.000000
		CHANNELS 3 Xrotation Yrotation Zrotation
		JOINT LeftUpLeg
		{
			OFFSET 18.735201 -5.666702 -4.541200
			CHANNELS 3 Xrotation Yrotation Zrotation
			JOINT LeftLeg
			{
				OFFSET -0.021200 -31.938179 0.493100
				CHANNELS 3 Xrotation Yrotation Zrotation
				JOINT LeftFoot
				{
					OFFSET 0.021200 -31.938179 -4.336299
					CHANNELS 3 Xrotation Yrotation Zrotation
					JOINT LeftToeBase
					{
						OFFSET 0.943001 -26.722000 15.023500
						CHANNELS 3 Xrotation Yrotation Zrotation
						End Site
						{
							OFFSET 0 0 0
						}
					}
				}
			}
		}
	}
	JOINT RightUpLeg_virtual
	{
		OFFSET 0.000000 0.000000 0.000000
		CHANNELS 3 Xrotation Yrotation Zrotation
		JOINT RightUpLeg
		{
			OFFSET -18.735201 -5.666702 -4.541200
			CHANNELS 3 Xrotation Yrotation Zrotation
			JOINT RightLeg
			{
				OFFSET 0.018946 -31.938133 0.493100
				CHANNELS 3 Xrotation Yrotation Zrotation
				JOINT RightFoot
				{
					OFFSET -0.018946 -31.938126 -4.336299
					CHANNELS 3 Xrotation Yrotation Zrotation
					JOINT RightToeBase
					{
						OFFSET -0.943001 -26.722004 15.023500
						CHANNELS 3 Xrotation Yrotation Zrotation
						End Site
						{
							OFFSET 0 0 0
						}
					}
				}
			}
		}
	}
	JOINT Hips_virtual
	{
		OFFSET 0.000000 0.000000 0.000000
		CHANNELS 3 Xrotation Yrotation Zrotation
		JOINT Hips
		{
			OFFSET -0.000000 -0.000000 -0.000000
			CHANNELS 3 Xrotation Yrotation Zrotation
			JOINT Spine
			{
				OFFSET 0.000000 10.199997 -0.299500
				CHANNELS 3 Xrotation Yrotation Zrotation
				JOINT Spine1
				{
					OFFSET 0.000000 11.900002 -1.516600
					CHANNELS 3 Xrotation Yrotation Zrotation
					JOINT Spine2
					{
						OFFSET 0.000000 13.600006 -2.842500
						CHANNELS 3 Xrotation Yrotation Zrotation
						JOINT Neck_virtual
						{
							OFFSET 0.000000 0.000000 0.000000
							CHANNELS 3 Xrotation Yrotation Zrotation
							JOINT Neck
							{
								OFFSET 0.000000 9.624100 -2.890100
								CHANNELS 3 Xrotation Yrotation Zrotation
								JOINT Head
								{
									OFFSET 0.000000 14.068802 -1.351900
									CHANNELS 3 Xrotation Yrotation Zrotation
									End Site
									{
										OFFSET 0 0 0
									}
								}
							}
						}
						JOINT LeftShoulder_virtual
						{
							OFFSET 0.000000 0.000000 0.000000
							CHANNELS 3 Xrotation Yrotation Zrotation
							JOINT LeftShoulder
							{
								OFFSET 15.263000 10.923401 -0.547700
								CHANNELS 3 Xrotation Yrotation Zrotation
								JOINT LeftArm
								{
									OFFSET 25.438599 -2.830597 -13.032500
									CHANNELS 3 Xrotation Yrotation Zrotation
									JOINT LeftForeArm
									{
										OFFSET 29.960503 0.000000 0.000000
										CHANNELS 3 Xrotation Yrotation Zrotation
										JOINT LeftHand
										{
											OFFSET 27.849251 0.000000 0.000000
											CHANNELS 3 Xrotation Yrotation Zrotation
											End Site
											{
												OFFSET 0 0 0
											}
										}
									}
								}
							}
						}
						JOINT RightShoulder_virtual
						{
							OFFSET 0.000000 0.000000 0.000000
							CHANNELS 3 Xrotation Yrotation Zrotation
							JOINT RightShoulder
							{
								OFFSET -15.263000 10.923401 -0.547700
								CHANNELS 3 Xrotation Yrotation Zrotation
								JOINT RightArm
								{
									OFFSET -25.438599 -2.830597 -13.032500
									CHANNELS 3 Xrotation Yrotation Zrotation
									JOINT RightForeArm
									{
										OFFSET -29.960503 0.000000 0.000000
										CHANNELS 3 Xrotation Yrotation Zrotation
										JOINT RightHand
										{
											OFFSET -27.849251 0.000000 0.000000
											CHANNELS 3 Xrotation Yrotation Zrotation
											End Site
											{
												OFFSET 0 0 0
											}
										}
									}
								}
							}
						}
					}
				}
			}
		}
	}
}
MOTION
Frames: 10
Frame Time: 0.03333333
-2.784041 87.823151 2.836773 0.000000 0.000000 0.000000 -6.078106 -42.937960 -3.789153 -34.382715 2.797548 16.536475 38.554919 -14.780082 -0.466879 -1.768594 0.957432 -10.955043 0.000000 0.000000 0.000000 -6.078106 -42.937960 -3.789153 1.092599 -13.635790 -18.500076 33.754781 -7.693374 -0.145382 -25.573854 -6.507766 21.331815 0.000000 0.000000 0.000000 -6.078106 -42.937960 -3.789153 0.000000 0.000001 0.000000 5.850732 4.525925 -1.455237 11.836539 9.037617 -3.083968 0.000000 0.000000 0.000000 11.836539 9.037615 -3.083969 -1.982213 -0.276599 0.110074 0.000000 0.000000 0.000000 11.836539 9.037615 -3.083969 1.396588 -0.734470 -7.859327 -14.236647 2.407736 -63.256793 9.875216 -47.538386 5.912044 0.000000 0.000000 0.000000 11.836539 9.037615 -3.083969 1.410915 9.461493 9.792765 1.220066 -24.270691 60.532866 -6.660697 41.858435 8.043900 0.000000 0.000000 0.000000 
-2.524050 87.502014 2.547937 0.000000 0.000000 0.000000 -4.939919 -43.700507 -3.057210 -35.862140 2.806828 16.827826 39.408699 -14.436271 -0.427667 -1.920074 1.007953 -11.037650 0.000000 0.000000 0.000000 -4.939919 -43.700507 -3.057210 -1.067577 -11.253431 -18.239136 36.044971 -9.248916 -0.339396 -26.017224 -6.476574 21.962470 0.000000 0.000000 0.000000 -4.939919 -43.700507 -3.057210 0.000000 -0.000002 0.000000 5.946808 4.426635 -1.392210 12.025232 8.854457 -2.993142 0.000000 0.000000 0.000000 12.025228 8.854468 -2.993144 -2.156000 -0.072884 0.203310 0.000000 0.000000 0.000000 12.025228 8.854468 -2.993144 0.965637 -1.032579 -7.966039 -15.103287 0.865216 -62.925126 10.783034 -44.898163 6.185712 0.000000 0.000000 0.000000 12.025228 8.854468 -2.993144 0.953481 9.999495 9.272299 0.949931 -23.054615 60.574550 -5.823124 42.180854 7.329613 0.000000 0.000000 0.000000 
-2.052952 87.007744 2.124392 0.000000 0.000000 0.000000 -3.042748 -44.448382 -1.592590 -38.135050 2.759440 16.831678 40.297843 -13.928408 -0.369457 -1.785174 1.033989 -11.135714 0.000000 0.000000 0.000000 -3.042748 -44.448382 -1.592590 -4.597539 -8.554529 -18.267116 39.525892 -10.696730 -0.535016 -26.686459 -6.467856 22.640696 0.000000 0.000000 0.000000 -3.042748 -44.448382 -1.592590 0.000000 0.000001 0.000000 6.046370 4.256798 -1.352424 12.224172 8.528400 -2.981038 0.000000 0.000000 0.000000 12.224171 8.528400 -2.981036 -2.539981 0.154644 0.233628 0.000000 0.000000 0.000000 12.224171 8.528400 -2.981036 0.265573 -1.356440 -8.721383 -15.849135 -0.272484 -61.599127 11.914433 -42.970656 5.909666 0.000000 0.000000 0.000000 12.224171 8.528400 -2.981036 0.311098 10.730826 8.924908 0.830475 -21.973982 60.244543 -4.994660 43.080001 7.063709 0.000000 0.000000 0.000000 
-1.479029 86.415192 1.619757 0.000000 0.000000 0.000000 -0.810575 -45.193688 0.180425 -40.766674 2.614788 16.771012 41.282114 -13.305298 -0.302418 -1.556099 1.066689 -11.275187 0.000000 0.000000 0.000000 -0.810575 -45.193688 0.180425 -8.762322 -6.344221 -18.578016 43.227345 -11.396491 -0.637534 -27.339056 -6.383392 23.172501 0.000000 0.000000 0.000000 -0.810575 -45.193688 0.180425 0.000000 -0.000001 0.000000 6.168664 4.059821 -1.340393 12.470203 8.138661 -3.034283 0.000000 0.000000 0.000000 12.470206 8.138638 -3.034274 -2.973108 0.392800 0.291106 0.000000 0.000000 0.000000 12.470206 8.138638 -3.034274 -0.375964 -1.611366 -9.419203 -16.940408 -1.632617 -60.270450 12.892797 -40.769034 5.492833 0.000000 0.000000 0.000000 12.470206 8.138638 -3.034274 -0.442266 11.779073 8.775498 0.563403 -20.903026 59.747934 -4.165703 43.767780 6.786849 0.000000 0.000000 0.000000 
-0.795785 85.707474 1.034235 0.000000 0.000000 0.000000 1.802095 -45.890057 2.299741 -43.821216 2.396182 16.673708 42.373469 -12.605994 -0.253835 -1.215682 1.081794 -11.427289 0.000000 0.000000 0.000000 1.802095 -45.890057 2.299741 -13.517576 -4.471426 -19.043264 47.093632 -11.558471 -0.769605 -27.959612 -6.255300 23.605224 0.000000 0.000000 0.000000 1.802095 -45.890057 2.299741 0.000000 0.000000 0.000000 6.282087 3.836531 -1.355118 12.699073 7.684464 -3.146812 0.000000 0.000000 0.000000 12.699074 7.684449 -3.146806 -3.463731 0.650226 0.349165 0.000000 0.000000 0.000000 12.699074 7.684449 -3.146806 -0.875545 -1.769852 -10.074790 -18.137846 -3.049783 -58.867536 13.873468 -38.764759 5.003134 0.000000 0.000000 0.000000 12.699074 7.684449 -3.146806 -0.838678 13.098425 8.883098 -0.164337 -19.694728 59.041221 -3.226354 44.201460 6.321469 0.000000 0.000000 0.000000 
-0.004077 84.871445 0.373560 0.000000 0.000000 0.000000 4.806714 -46.480523 4.771871 -47.303534 2.028434 16.520196 43.580814 -11.789450 -0.235600 -0.762127 1.080136 -11.607593 0.000000 0.000000 0.000000 4.806714 -46.480523 4.771871 -18.775256 -2.755840 -19.534332 51.055439 -11.444907 -1.008547 -28.500086 -6.107889 24.033636 0.000000 0.000000 0.000000 4.806714 -46.480523 4.771871 0.000000 0.000002 0.000000 6.420346 3.593301 -1.383604 12.976932 7.175513 -3.292786 0.000000 0.000000 0.000000 12.976934 7.175519 -3.292787 -3.961213 0.897751 0.507529 0.000000 0.000000 0.000000 12.976934 7.175519 -3.292787 -1.553571 -1.849195 -10.801362 -19.606072 -4.780632 -57.687518 14.779230 -36.195853 4.471639 0.000000 0.000000 0.000000 12.976934 7.175519 -3.292787 -1.434251 14.475382 9.108126 -1.153196 -18.338590 58.213101 -1.985499 44.235403 5.575667 0.000000 0.000000 0.000000 
0.888197 83.311279 -0.348028 0.000000 0.000000 0.000000 8.166120 -46.902718 7.558628 -52.377463 1.033396 16.365133 47.016925 -10.908124 -0.180018 -1.050096 1.146815 -11.824469 0.000000 0.000000 0.000000 8.166120 -46.902718 7.558628 -25.252048 -0.984838 -20.381271 56.930269 -10.589892 -1.171984 -29.971871 -6.191191 24.450103 0.000000 0.000000 0.000000 8.166120 -46.902718 7.558628 0.000000 0.000001 0.000000 6.516117 3.332171 -1.438484 13.169144 6.618407 -3.493479 0.000000 0.000000 0.000000 13.169153 6.618413 -3.493481 -4.430949 1.190496 0.603155 0.000000 0.000000 0.000000 13.169153 6.618413 -3.493481 -2.086172 -1.814106 -11.473726 -20.799856 -6.411803 -56.372307 15.798262 -34.521924 4.124782 0.000000 0.000000 0.000000 13.169153 6.618413 -3.493481 -1.942413 15.825367 9.625623 -1.897445 -17.221379 57.395712 -0.791314 45.123081 4.765356 0.000000 0.000000 0.000000 
1.863651 81.909172 -1.118484 0.000000 0.000000 0.000000 11.788089 -47.108662 10.577335 -57.164981 0.074131 16.007493 49.390116 -9.842213 -0.080290 -0.730030 1.156991 -12.203585 0.000000 0.000000 0.000000 11.788089 -47.108662 10.577335 -31.562427 0.676231 -21.023286 61.741652 -9.895084 -1.386658 -30.806332 -6.081930 24.732294 0.000000 0.000000 0.000000 11.788089 -47.108662 10.577335 0.000000 -0.000001 0.000000 6.631806 3.065916 -1.523346 13.400069 6.026657 -3.752139 0.000000 0.000000 0.000000 13.400070 6.026652 -3.752144 -4.917312 1.465991 0.766256 0.000000 0.000000 0.000000 13.400070 6.026652 -3.752144 -2.623137 -1.677122 -12.133482 -23.589832 -9.271363 -55.509685 15.902924 -29.705439 3.713926 0.000000 0.000000 0.000000 13.400070 6.026652 -3.752144 -2.443569 16.901119 10.300538 -3.014026 -15.827439 56.576120 -0.050450 45.978334 4.024403 0.000000 0.000000 0.000000 
2.899128 80.340843 -1.915491 0.000000 0.000000 0.000000 15.527303 -47.065577 13.697844 -62.255310 -1.108660 15.497964 51.897434 -8.649060 0.057497 -0.307517 1.152707 -12.722063 0.000000 0.000000 0.000000 15.527303 -47.065577 13.697844 -37.989417 2.467709 -21.513178 66.554893 -9.335813 -1.606612 -31.611109 -5.967874 25.005328 0.000000 0.000000 0.000000 15.527303 -47.065577 13.697844 -0.000001 0.000000 0.000000 6.761395 2.803500 -1.621945 13.656724 5.421475 -4.034898 0.000000 0.000000 0.000000 13.656709 5.421478 -4.034906 -5.480194 1.683613 1.044194 0.000000 0.000000 0.000000 13.656709 5.421478 -4.034906 -3.021300 -1.594961 -12.831284 -26.898011 -12.682990 -55.109702 15.744476 -24.195378 3.605378 0.000000 0.000000 0.000000 13.656709 5.421478 -4.034906 -2.731088 17.626305 11.069227 -4.825921 -13.979237 55.763044 0.666411 46.415374 3.278765 0.000000 0.000000 0.000000 
3.964796 78.616997 -2.717068 0.000000 0.000000 0.000000 19.203601 -46.772333 16.764225 -67.569552 -2.381038 14.877733 54.520578 -7.476340 0.239088 0.212292 1.135552 -13.333262 0.000000 0.000000 0.000000 19.203601 -46.772333 16.764225 -44.426156 4.300168 -22.166887 71.382321 -8.510869 -1.506002 -32.421378 -5.764646 25.068973 0.000000 0.000000 0.000000 19.203601 -46.772333 16.764225 0.000000 -0.000001 0.000000 6.893824 2.545693 -1.741160 13.916811 4.805307 -4.349789 0.000000 0.000000 0.000000 13.916815 4.805305 -4.349782 -5.942720 1.869539 1.366320 0.000000 0.000000 0.000000 13.916815 4.805305 -4.349782 -3.412957 -1.636110 -13.438524 -30.545053 -16.457797 -54.852300 15.303295 -18.518741 3.216745 0.000000 0.000000 0.000000 13.916815 4.805305 -4.349782 -3.098858 18.158543 12.104577 -6.774454 -12.227615 54.957379 1.216596 46.975289 2.572855 0.000000 0.000000 0.000000 
